<mxfile host="65bd71144e">
    <diagram id="sbpvz2KzQMdx_OctlbVV" name="Page-1">
        <mxGraphModel dx="1309" dy="638" grid="1" gridSize="10" guides="1" tooltips="1" connect="1" arrows="1" fold="1" page="1" pageScale="1" pageWidth="850" pageHeight="1100" math="0" shadow="0">
            <root>
                <mxCell id="0"/>
                <mxCell id="1" parent="0"/>
                <mxCell id="2" value="MFCC" style="whiteSpace=wrap;html=1;rounded=1;arcSize=50;align=center;verticalAlign=middle;strokeWidth=1;autosize=1;spacing=4;treeFolding=1;treeMoving=1;newEdgeStyle={&quot;edgeStyle&quot;:&quot;entityRelationEdgeStyle&quot;,&quot;startArrow&quot;:&quot;none&quot;,&quot;endArrow&quot;:&quot;none&quot;,&quot;segment&quot;:10,&quot;curved&quot;:1,&quot;sourcePerimeterSpacing&quot;:0,&quot;targetPerimeterSpacing&quot;:0};" vertex="1" parent="1">
                    <mxGeometry x="130" y="150" width="80" height="30" as="geometry"/>
                </mxCell>
                <mxCell id="4" value="voice" style="shape=delay;whiteSpace=wrap;html=1;" vertex="1" parent="1">
                    <mxGeometry x="10" y="145" width="80" height="40" as="geometry"/>
                </mxCell>
                <mxCell id="6" value="Multinet" style="whiteSpace=wrap;html=1;rounded=1;arcSize=50;align=center;verticalAlign=middle;strokeWidth=1;autosize=1;spacing=4;treeFolding=1;treeMoving=1;newEdgeStyle={&quot;edgeStyle&quot;:&quot;entityRelationEdgeStyle&quot;,&quot;startArrow&quot;:&quot;none&quot;,&quot;endArrow&quot;:&quot;none&quot;,&quot;segment&quot;:10,&quot;curved&quot;:1,&quot;sourcePerimeterSpacing&quot;:0,&quot;targetPerimeterSpacing&quot;:0};" vertex="1" parent="1">
                    <mxGeometry x="250" y="150" width="90" height="30" as="geometry"/>
                </mxCell>
                <mxCell id="8" value="" style="endArrow=classic;html=1;" edge="1" parent="1" target="2">
                    <mxGeometry width="50" height="50" relative="1" as="geometry">
                        <mxPoint x="90" y="165" as="sourcePoint"/>
                        <mxPoint x="140" y="120" as="targetPoint"/>
                        <Array as="points"/>
                    </mxGeometry>
                </mxCell>
                <mxCell id="9" value="" style="endArrow=classic;html=1;" edge="1" parent="1">
                    <mxGeometry width="50" height="50" relative="1" as="geometry">
                        <mxPoint x="210" y="164.5" as="sourcePoint"/>
                        <mxPoint x="250" y="164.5" as="targetPoint"/>
                        <Array as="points">
                            <mxPoint x="230" y="164.5"/>
                        </Array>
                    </mxGeometry>
                </mxCell>
                <mxCell id="10" value="Language model" style="whiteSpace=wrap;html=1;rounded=1;arcSize=50;align=center;verticalAlign=middle;strokeWidth=1;autosize=1;spacing=4;treeFolding=1;treeMoving=1;newEdgeStyle={&quot;edgeStyle&quot;:&quot;entityRelationEdgeStyle&quot;,&quot;startArrow&quot;:&quot;none&quot;,&quot;endArrow&quot;:&quot;none&quot;,&quot;segment&quot;:10,&quot;curved&quot;:1,&quot;sourcePerimeterSpacing&quot;:0,&quot;targetPerimeterSpacing&quot;:0};" vertex="1" parent="1">
                    <mxGeometry x="360" y="150" width="130" height="30" as="geometry"/>
                </mxCell>
                <mxCell id="11" value="" style="endArrow=classic;html=1;" edge="1" parent="1">
                    <mxGeometry width="50" height="50" relative="1" as="geometry">
                        <mxPoint x="340" y="164.5" as="sourcePoint"/>
                        <mxPoint x="380" y="164.5" as="targetPoint"/>
                        <Array as="points">
                            <mxPoint x="360" y="164.5"/>
                        </Array>
                    </mxGeometry>
                </mxCell>
                <mxCell id="12" value="Command ID" style="whiteSpace=wrap;html=1;rounded=1;arcSize=50;align=center;verticalAlign=middle;strokeWidth=1;autosize=1;spacing=4;treeFolding=1;treeMoving=1;newEdgeStyle={&quot;edgeStyle&quot;:&quot;entityRelationEdgeStyle&quot;,&quot;startArrow&quot;:&quot;none&quot;,&quot;endArrow&quot;:&quot;none&quot;,&quot;segment&quot;:10,&quot;curved&quot;:1,&quot;sourcePerimeterSpacing&quot;:0,&quot;targetPerimeterSpacing&quot;:0};" vertex="1" parent="1">
                    <mxGeometry x="530" y="150" width="120" height="30" as="geometry"/>
                </mxCell>
                <mxCell id="13" value="" style="endArrow=classic;html=1;" edge="1" parent="1">
                    <mxGeometry width="50" height="50" relative="1" as="geometry">
                        <mxPoint x="490" y="164.5" as="sourcePoint"/>
                        <mxPoint x="530" y="164.5" as="targetPoint"/>
                        <Array as="points">
                            <mxPoint x="510" y="164.5"/>
                        </Array>
                    </mxGeometry>
                </mxCell>
                <mxCell id="16" value="Detected or notfound" style="whiteSpace=wrap;html=1;rounded=1;arcSize=50;align=center;verticalAlign=middle;strokeWidth=1;autosize=1;spacing=4;treeFolding=1;treeMoving=1;newEdgeStyle={&quot;edgeStyle&quot;:&quot;entityRelationEdgeStyle&quot;,&quot;startArrow&quot;:&quot;none&quot;,&quot;endArrow&quot;:&quot;none&quot;,&quot;segment&quot;:10,&quot;curved&quot;:1,&quot;sourcePerimeterSpacing&quot;:0,&quot;targetPerimeterSpacing&quot;:0};" vertex="1" parent="1">
                    <mxGeometry x="690" y="150" width="160" height="30" as="geometry"/>
                </mxCell>
                <mxCell id="17" value="" style="endArrow=classic;html=1;" edge="1" parent="1">
                    <mxGeometry width="50" height="50" relative="1" as="geometry">
                        <mxPoint x="650" y="164.5" as="sourcePoint"/>
                        <mxPoint x="690" y="164.5" as="targetPoint"/>
                        <Array as="points">
                            <mxPoint x="670" y="164.5"/>
                        </Array>
                    </mxGeometry>
                </mxCell>
                <mxCell id="18" value="Custom command words" style="rounded=0;whiteSpace=wrap;html=1;" vertex="1" parent="1">
                    <mxGeometry x="10" y="210" width="130" height="40" as="geometry"/>
                </mxCell>
                <mxCell id="21" style="edgeStyle=none;html=1;" edge="1" parent="1" source="19">
                    <mxGeometry relative="1" as="geometry">
                        <mxPoint x="670" y="160" as="targetPoint"/>
                        <Array as="points">
                            <mxPoint x="670" y="230"/>
                        </Array>
                    </mxGeometry>
                </mxCell>
                <mxCell id="19" value="Command ID in database" style="rounded=0;whiteSpace=wrap;html=1;" vertex="1" parent="1">
                    <mxGeometry x="180" y="210" width="130" height="40" as="geometry"/>
                </mxCell>
                <mxCell id="20" value="" style="endArrow=classic;html=1;" edge="1" parent="1">
                    <mxGeometry width="50" height="50" relative="1" as="geometry">
                        <mxPoint x="140" y="230" as="sourcePoint"/>
                        <mxPoint x="180" y="230" as="targetPoint"/>
                        <Array as="points"/>
                    </mxGeometry>
                </mxCell>
            </root>
        </mxGraphModel>
    </diagram>
</mxfile>